<mxfile host="app.diagrams.net" modified="2022-11-26T18:39:58.216Z" agent="5.0 (Windows NT 10.0; Win64; x64) AppleWebKit/537.36 (KHTML, like Gecko) Chrome/107.0.0.0 Safari/537.36" version="20.6.0" etag="Y7I_z3Katb8XInNnwXp3" type="github">
  <diagram id="8bSMZnSCWfxR5P--v4D5" name="페이지-1">
    <mxGraphModel dx="1422" dy="754" grid="1" gridSize="10" guides="1" tooltips="1" connect="1" arrows="1" fold="1" page="1" pageScale="1" pageWidth="827" pageHeight="1169" math="0" shadow="0">
      <root>
        <mxCell id="0" />
        <mxCell id="1" parent="0" />
        <mxCell id="63neIwI_dCzHbPOVYyF_-1" value="" style="edgeStyle=orthogonalEdgeStyle;rounded=0;orthogonalLoop=1;jettySize=auto;html=1;" edge="1" parent="1" source="63neIwI_dCzHbPOVYyF_-7" target="63neIwI_dCzHbPOVYyF_-33">
          <mxGeometry relative="1" as="geometry" />
        </mxCell>
        <mxCell id="63neIwI_dCzHbPOVYyF_-2" style="edgeStyle=orthogonalEdgeStyle;rounded=0;orthogonalLoop=1;jettySize=auto;html=1;exitX=1;exitY=0.5;exitDx=0;exitDy=0;entryX=0;entryY=0.5;entryDx=0;entryDy=0;" edge="1" parent="1" source="63neIwI_dCzHbPOVYyF_-7" target="63neIwI_dCzHbPOVYyF_-34">
          <mxGeometry relative="1" as="geometry" />
        </mxCell>
        <mxCell id="63neIwI_dCzHbPOVYyF_-3" style="edgeStyle=orthogonalEdgeStyle;rounded=0;orthogonalLoop=1;jettySize=auto;html=1;exitX=1;exitY=0.5;exitDx=0;exitDy=0;entryX=0;entryY=0.5;entryDx=0;entryDy=0;" edge="1" parent="1" source="63neIwI_dCzHbPOVYyF_-7" target="63neIwI_dCzHbPOVYyF_-35">
          <mxGeometry relative="1" as="geometry" />
        </mxCell>
        <mxCell id="63neIwI_dCzHbPOVYyF_-4" style="edgeStyle=orthogonalEdgeStyle;rounded=0;orthogonalLoop=1;jettySize=auto;html=1;exitX=1;exitY=0.5;exitDx=0;exitDy=0;entryX=0;entryY=0.5;entryDx=0;entryDy=0;" edge="1" parent="1" source="63neIwI_dCzHbPOVYyF_-7" target="63neIwI_dCzHbPOVYyF_-32">
          <mxGeometry relative="1" as="geometry" />
        </mxCell>
        <mxCell id="63neIwI_dCzHbPOVYyF_-5" style="edgeStyle=orthogonalEdgeStyle;rounded=0;orthogonalLoop=1;jettySize=auto;html=1;exitX=1;exitY=0.5;exitDx=0;exitDy=0;entryX=0;entryY=0.5;entryDx=0;entryDy=0;" edge="1" parent="1" source="63neIwI_dCzHbPOVYyF_-7" target="63neIwI_dCzHbPOVYyF_-31">
          <mxGeometry relative="1" as="geometry" />
        </mxCell>
        <mxCell id="63neIwI_dCzHbPOVYyF_-6" style="edgeStyle=orthogonalEdgeStyle;rounded=0;orthogonalLoop=1;jettySize=auto;html=1;exitX=1;exitY=0.5;exitDx=0;exitDy=0;entryX=0;entryY=0.5;entryDx=0;entryDy=0;startArrow=block;startFill=1;" edge="1" parent="1" source="63neIwI_dCzHbPOVYyF_-7" target="63neIwI_dCzHbPOVYyF_-30">
          <mxGeometry relative="1" as="geometry" />
        </mxCell>
        <mxCell id="63neIwI_dCzHbPOVYyF_-7" value="&lt;b&gt;Control PC&lt;/b&gt;" style="rounded=0;whiteSpace=wrap;html=1;fillColor=#d5e8d4;strokeColor=#82b366;" vertex="1" parent="1">
          <mxGeometry x="420" y="270" width="120" height="140" as="geometry" />
        </mxCell>
        <mxCell id="63neIwI_dCzHbPOVYyF_-8" value="" style="edgeStyle=orthogonalEdgeStyle;rounded=0;orthogonalLoop=1;jettySize=auto;html=1;" edge="1" parent="1" source="63neIwI_dCzHbPOVYyF_-9" target="63neIwI_dCzHbPOVYyF_-7">
          <mxGeometry relative="1" as="geometry" />
        </mxCell>
        <mxCell id="63neIwI_dCzHbPOVYyF_-9" value="&lt;b&gt;IMU&lt;/b&gt;" style="rounded=0;whiteSpace=wrap;html=1;fillColor=#dae8fc;strokeColor=#6c8ebf;" vertex="1" parent="1">
          <mxGeometry x="260" y="270" width="120" height="60" as="geometry" />
        </mxCell>
        <mxCell id="63neIwI_dCzHbPOVYyF_-10" value="" style="edgeStyle=orthogonalEdgeStyle;rounded=0;orthogonalLoop=1;jettySize=auto;html=1;" edge="1" parent="1" source="63neIwI_dCzHbPOVYyF_-11" target="63neIwI_dCzHbPOVYyF_-7">
          <mxGeometry relative="1" as="geometry" />
        </mxCell>
        <mxCell id="63neIwI_dCzHbPOVYyF_-11" value="&lt;b&gt;JoyStick&lt;/b&gt;" style="rounded=0;whiteSpace=wrap;html=1;fillColor=#dae8fc;strokeColor=#6c8ebf;" vertex="1" parent="1">
          <mxGeometry x="260" y="340" width="120" height="60" as="geometry" />
        </mxCell>
        <mxCell id="63neIwI_dCzHbPOVYyF_-12" value="" style="edgeStyle=orthogonalEdgeStyle;rounded=0;orthogonalLoop=1;jettySize=auto;html=1;" edge="1" parent="1" source="63neIwI_dCzHbPOVYyF_-13" target="63neIwI_dCzHbPOVYyF_-9">
          <mxGeometry relative="1" as="geometry" />
        </mxCell>
        <mxCell id="63neIwI_dCzHbPOVYyF_-13" value="&lt;b&gt;5V&lt;br&gt;Power Supply&lt;/b&gt;" style="rounded=0;whiteSpace=wrap;html=1;fillColor=#f8cecc;strokeColor=#b85450;" vertex="1" parent="1">
          <mxGeometry x="100" y="270" width="120" height="60" as="geometry" />
        </mxCell>
        <mxCell id="63neIwI_dCzHbPOVYyF_-14" style="edgeStyle=orthogonalEdgeStyle;rounded=0;orthogonalLoop=1;jettySize=auto;html=1;exitX=1;exitY=0.5;exitDx=0;exitDy=0;entryX=0.5;entryY=0;entryDx=0;entryDy=0;" edge="1" parent="1" source="63neIwI_dCzHbPOVYyF_-15" target="63neIwI_dCzHbPOVYyF_-30">
          <mxGeometry relative="1" as="geometry" />
        </mxCell>
        <mxCell id="63neIwI_dCzHbPOVYyF_-15" value="&lt;b&gt;24V&lt;br&gt;Power Supply&lt;/b&gt;" style="rounded=0;whiteSpace=wrap;html=1;fillColor=#f8cecc;strokeColor=#b85450;" vertex="1" parent="1">
          <mxGeometry x="100" y="140" width="120" height="60" as="geometry" />
        </mxCell>
        <mxCell id="63neIwI_dCzHbPOVYyF_-24" value="" style="group" vertex="1" connectable="0" parent="1">
          <mxGeometry x="80" y="450" width="160" height="250" as="geometry" />
        </mxCell>
        <mxCell id="63neIwI_dCzHbPOVYyF_-25" value="" style="rounded=0;whiteSpace=wrap;html=1;fillColor=none;dashed=1;strokeColor=#b85450;" vertex="1" parent="63neIwI_dCzHbPOVYyF_-24">
          <mxGeometry width="160" height="250" as="geometry" />
        </mxCell>
        <mxCell id="63neIwI_dCzHbPOVYyF_-26" value="Incremental Encoder" style="rounded=0;whiteSpace=wrap;html=1;fillColor=#dae8fc;strokeColor=#6c8ebf;" vertex="1" parent="63neIwI_dCzHbPOVYyF_-24">
          <mxGeometry x="20" y="156.25" width="120" height="62.5" as="geometry" />
        </mxCell>
        <mxCell id="63neIwI_dCzHbPOVYyF_-27" value="&lt;h1&gt;Motor&lt;/h1&gt;" style="text;html=1;strokeColor=none;fillColor=none;align=center;verticalAlign=middle;whiteSpace=wrap;rounded=0;dashed=1;" vertex="1" parent="63neIwI_dCzHbPOVYyF_-24">
          <mxGeometry x="50" y="15.625" width="60" height="46.875" as="geometry" />
        </mxCell>
        <mxCell id="63neIwI_dCzHbPOVYyF_-28" value="BLDC&lt;br&gt;Motor" style="rounded=0;whiteSpace=wrap;html=1;fillColor=#f8cecc;strokeColor=#b85450;" vertex="1" parent="63neIwI_dCzHbPOVYyF_-24">
          <mxGeometry x="20" y="71.875" width="120" height="62.5" as="geometry" />
        </mxCell>
        <mxCell id="63neIwI_dCzHbPOVYyF_-29" value="" style="group" vertex="1" connectable="0" parent="1">
          <mxGeometry x="580" y="190" width="120" height="300" as="geometry" />
        </mxCell>
        <mxCell id="63neIwI_dCzHbPOVYyF_-30" value="&lt;b&gt;Motor Driver&lt;/b&gt;" style="rounded=0;whiteSpace=wrap;html=1;fillColor=#d5e8d4;strokeColor=#82b366;" vertex="1" parent="63neIwI_dCzHbPOVYyF_-29">
          <mxGeometry width="120" height="50" as="geometry" />
        </mxCell>
        <mxCell id="63neIwI_dCzHbPOVYyF_-31" value="&lt;b&gt;Motor Driver&lt;/b&gt;" style="rounded=0;whiteSpace=wrap;html=1;fillColor=#d5e8d4;strokeColor=#82b366;" vertex="1" parent="63neIwI_dCzHbPOVYyF_-29">
          <mxGeometry y="50" width="120" height="50" as="geometry" />
        </mxCell>
        <mxCell id="63neIwI_dCzHbPOVYyF_-32" value="&lt;b&gt;Motor Driver&lt;/b&gt;" style="rounded=0;whiteSpace=wrap;html=1;fillColor=#d5e8d4;strokeColor=#82b366;" vertex="1" parent="63neIwI_dCzHbPOVYyF_-29">
          <mxGeometry y="100" width="120" height="50" as="geometry" />
        </mxCell>
        <mxCell id="63neIwI_dCzHbPOVYyF_-33" value="&lt;b&gt;Motor Driver&lt;/b&gt;" style="rounded=0;whiteSpace=wrap;html=1;fillColor=#d5e8d4;strokeColor=#82b366;" vertex="1" parent="63neIwI_dCzHbPOVYyF_-29">
          <mxGeometry y="150" width="120" height="50" as="geometry" />
        </mxCell>
        <mxCell id="63neIwI_dCzHbPOVYyF_-34" value="&lt;b&gt;Motor Driver&lt;/b&gt;" style="rounded=0;whiteSpace=wrap;html=1;fillColor=#d5e8d4;strokeColor=#82b366;" vertex="1" parent="63neIwI_dCzHbPOVYyF_-29">
          <mxGeometry y="200" width="120" height="50" as="geometry" />
        </mxCell>
        <mxCell id="63neIwI_dCzHbPOVYyF_-35" value="&lt;b&gt;Motor Driver&lt;/b&gt;" style="rounded=0;whiteSpace=wrap;html=1;fillColor=#d5e8d4;strokeColor=#82b366;" vertex="1" parent="63neIwI_dCzHbPOVYyF_-29">
          <mxGeometry y="250" width="120" height="50" as="geometry" />
        </mxCell>
        <mxCell id="63neIwI_dCzHbPOVYyF_-36" style="edgeStyle=orthogonalEdgeStyle;rounded=0;orthogonalLoop=1;jettySize=auto;html=1;exitX=1;exitY=0.5;exitDx=0;exitDy=0;" edge="1" parent="1" source="63neIwI_dCzHbPOVYyF_-30" target="63neIwI_dCzHbPOVYyF_-46">
          <mxGeometry relative="1" as="geometry" />
        </mxCell>
        <mxCell id="63neIwI_dCzHbPOVYyF_-37" style="edgeStyle=orthogonalEdgeStyle;rounded=0;orthogonalLoop=1;jettySize=auto;html=1;exitX=1;exitY=0.5;exitDx=0;exitDy=0;" edge="1" parent="1" source="63neIwI_dCzHbPOVYyF_-31" target="63neIwI_dCzHbPOVYyF_-47">
          <mxGeometry relative="1" as="geometry" />
        </mxCell>
        <mxCell id="63neIwI_dCzHbPOVYyF_-38" style="edgeStyle=orthogonalEdgeStyle;rounded=0;orthogonalLoop=1;jettySize=auto;html=1;exitX=1;exitY=0.5;exitDx=0;exitDy=0;entryX=0;entryY=0.5;entryDx=0;entryDy=0;" edge="1" parent="1" source="63neIwI_dCzHbPOVYyF_-32" target="63neIwI_dCzHbPOVYyF_-48">
          <mxGeometry relative="1" as="geometry" />
        </mxCell>
        <mxCell id="63neIwI_dCzHbPOVYyF_-39" style="edgeStyle=orthogonalEdgeStyle;rounded=0;orthogonalLoop=1;jettySize=auto;html=1;exitX=1;exitY=0.5;exitDx=0;exitDy=0;" edge="1" parent="1" source="63neIwI_dCzHbPOVYyF_-33" target="63neIwI_dCzHbPOVYyF_-49">
          <mxGeometry relative="1" as="geometry" />
        </mxCell>
        <mxCell id="63neIwI_dCzHbPOVYyF_-40" style="edgeStyle=orthogonalEdgeStyle;rounded=0;orthogonalLoop=1;jettySize=auto;html=1;exitX=1;exitY=0.5;exitDx=0;exitDy=0;entryX=0;entryY=0.5;entryDx=0;entryDy=0;" edge="1" parent="1" source="63neIwI_dCzHbPOVYyF_-34" target="63neIwI_dCzHbPOVYyF_-50">
          <mxGeometry relative="1" as="geometry" />
        </mxCell>
        <mxCell id="63neIwI_dCzHbPOVYyF_-41" style="edgeStyle=orthogonalEdgeStyle;rounded=0;orthogonalLoop=1;jettySize=auto;html=1;exitX=1;exitY=0.5;exitDx=0;exitDy=0;entryX=0;entryY=0.5;entryDx=0;entryDy=0;" edge="1" parent="1" source="63neIwI_dCzHbPOVYyF_-35" target="63neIwI_dCzHbPOVYyF_-51">
          <mxGeometry relative="1" as="geometry" />
        </mxCell>
        <mxCell id="63neIwI_dCzHbPOVYyF_-42" value="" style="group" vertex="1" connectable="0" parent="1">
          <mxGeometry x="728.86" y="125" width="331.48000000000013" height="385" as="geometry" />
        </mxCell>
        <mxCell id="63neIwI_dCzHbPOVYyF_-43" value="" style="rounded=0;whiteSpace=wrap;html=1;dashed=1;fillColor=none;strokeColor=#b85450;" vertex="1" parent="63neIwI_dCzHbPOVYyF_-42">
          <mxGeometry width="331.48" height="385" as="geometry" />
        </mxCell>
        <mxCell id="63neIwI_dCzHbPOVYyF_-44" value="&lt;h1&gt;Stewart-Gough Platform&lt;/h1&gt;" style="text;html=1;strokeColor=none;fillColor=none;align=center;verticalAlign=middle;whiteSpace=wrap;rounded=0;dashed=1;" vertex="1" parent="63neIwI_dCzHbPOVYyF_-42">
          <mxGeometry x="23.100000000000023" y="15" width="285.29" height="30" as="geometry" />
        </mxCell>
        <mxCell id="63neIwI_dCzHbPOVYyF_-45" value="" style="group" vertex="1" connectable="0" parent="63neIwI_dCzHbPOVYyF_-42">
          <mxGeometry x="43.71689075630252" y="65" width="244.03999999999996" height="300" as="geometry" />
        </mxCell>
        <mxCell id="63neIwI_dCzHbPOVYyF_-46" value="&lt;b&gt;Linear Actuator&lt;/b&gt;" style="rounded=0;whiteSpace=wrap;html=1;fillColor=#f8cecc;strokeColor=#b85450;" vertex="1" parent="63neIwI_dCzHbPOVYyF_-45">
          <mxGeometry x="0.009999999999990905" width="244.03" height="50" as="geometry" />
        </mxCell>
        <mxCell id="63neIwI_dCzHbPOVYyF_-47" value="&lt;b&gt;Linear Actuator&lt;/b&gt;" style="rounded=0;whiteSpace=wrap;html=1;fillColor=#f8cecc;strokeColor=#b85450;" vertex="1" parent="63neIwI_dCzHbPOVYyF_-45">
          <mxGeometry y="50" width="244.03" height="50" as="geometry" />
        </mxCell>
        <mxCell id="63neIwI_dCzHbPOVYyF_-48" value="&lt;b&gt;Linear Actuator&lt;/b&gt;" style="rounded=0;whiteSpace=wrap;html=1;fillColor=#f8cecc;strokeColor=#b85450;" vertex="1" parent="63neIwI_dCzHbPOVYyF_-45">
          <mxGeometry y="100" width="244.03" height="50" as="geometry" />
        </mxCell>
        <mxCell id="63neIwI_dCzHbPOVYyF_-49" value="&lt;b&gt;Linear Actuator&lt;/b&gt;" style="rounded=0;whiteSpace=wrap;html=1;fillColor=#f8cecc;strokeColor=#b85450;" vertex="1" parent="63neIwI_dCzHbPOVYyF_-45">
          <mxGeometry y="150" width="244.03" height="50" as="geometry" />
        </mxCell>
        <mxCell id="63neIwI_dCzHbPOVYyF_-50" value="&lt;b&gt;Linear Actuator&lt;/b&gt;" style="rounded=0;whiteSpace=wrap;html=1;fillColor=#f8cecc;strokeColor=#b85450;" vertex="1" parent="63neIwI_dCzHbPOVYyF_-45">
          <mxGeometry y="200" width="244.03" height="50" as="geometry" />
        </mxCell>
        <mxCell id="63neIwI_dCzHbPOVYyF_-51" value="&lt;b&gt;Linear Actuator&lt;/b&gt;" style="rounded=0;whiteSpace=wrap;html=1;fillColor=#f8cecc;strokeColor=#b85450;" vertex="1" parent="63neIwI_dCzHbPOVYyF_-45">
          <mxGeometry y="250" width="244.03" height="50" as="geometry" />
        </mxCell>
        <mxCell id="63neIwI_dCzHbPOVYyF_-17" value="" style="rounded=0;whiteSpace=wrap;html=1;fillColor=none;strokeColor=#b85450;dashed=1;" vertex="1" parent="1">
          <mxGeometry x="280" y="450" width="210" height="250" as="geometry" />
        </mxCell>
        <mxCell id="63neIwI_dCzHbPOVYyF_-18" style="edgeStyle=orthogonalEdgeStyle;rounded=0;orthogonalLoop=1;jettySize=auto;html=1;exitX=0.5;exitY=0;exitDx=0;exitDy=0;entryX=0.5;entryY=1;entryDx=0;entryDy=0;" edge="1" parent="1" source="63neIwI_dCzHbPOVYyF_-19" target="63neIwI_dCzHbPOVYyF_-21">
          <mxGeometry relative="1" as="geometry" />
        </mxCell>
        <mxCell id="63neIwI_dCzHbPOVYyF_-19" value="&lt;b&gt;Motor&lt;/b&gt;" style="rounded=0;whiteSpace=wrap;html=1;fillColor=#f8cecc;strokeColor=#b85450;" vertex="1" parent="1">
          <mxGeometry x="302" y="600" width="166" height="36" as="geometry" />
        </mxCell>
        <mxCell id="63neIwI_dCzHbPOVYyF_-20" style="edgeStyle=orthogonalEdgeStyle;rounded=0;orthogonalLoop=1;jettySize=auto;html=1;exitX=0.5;exitY=0;exitDx=0;exitDy=0;entryX=0.5;entryY=1;entryDx=0;entryDy=0;" edge="1" parent="1" source="63neIwI_dCzHbPOVYyF_-21" target="63neIwI_dCzHbPOVYyF_-22">
          <mxGeometry relative="1" as="geometry" />
        </mxCell>
        <mxCell id="63neIwI_dCzHbPOVYyF_-21" value="&lt;b&gt;Gear Box&lt;/b&gt;" style="rounded=0;whiteSpace=wrap;html=1;fillColor=#f5f5f5;fontColor=#333333;strokeColor=#666666;" vertex="1" parent="1">
          <mxGeometry x="302" y="550" width="166" height="36" as="geometry" />
        </mxCell>
        <mxCell id="63neIwI_dCzHbPOVYyF_-22" value="&lt;b&gt;Ball Screw&lt;/b&gt;" style="rounded=0;whiteSpace=wrap;html=1;fillColor=#f5f5f5;fontColor=#333333;strokeColor=#666666;" vertex="1" parent="1">
          <mxGeometry x="302" y="500" width="166" height="36" as="geometry" />
        </mxCell>
        <mxCell id="63neIwI_dCzHbPOVYyF_-23" value="&lt;h1&gt;Linear Actuator&lt;/h1&gt;" style="text;html=1;strokeColor=none;fillColor=none;align=center;verticalAlign=middle;whiteSpace=wrap;rounded=0;dashed=1;" vertex="1" parent="1">
          <mxGeometry x="282.5" y="460" width="205" height="30" as="geometry" />
        </mxCell>
        <mxCell id="63neIwI_dCzHbPOVYyF_-52" value="&lt;b&gt;Photo Interrupter&lt;/b&gt;" style="rounded=0;whiteSpace=wrap;html=1;fillColor=#d5e8d4;strokeColor=#82b366;" vertex="1" parent="1">
          <mxGeometry x="302" y="650" width="166" height="36" as="geometry" />
        </mxCell>
      </root>
    </mxGraphModel>
  </diagram>
</mxfile>
